<?xml version="1.0" standalone="no"?>
<!DOCTYPE svg PUBLIC "-//W3C//DTD SVG 20010904//EN"
 "http://www.w3.org/TR/2001/REC-SVG-20010904/DTD/svg10.dtd">
<svg version="1.0" xmlns="http://www.w3.org/2000/svg"
 width="1600.000000pt" height="1600.000000pt" viewBox="0 0 1600.000000 1600.000000"
 preserveAspectRatio="xMidYMid meet">
<metadata>
Created by potrace 1.14, written by Peter Selinger 2001-2017
</metadata>
<g transform="translate(0.000000,1600.000000) scale(0.100000,-0.100000)"
fill="#000000" stroke="none">
<path d="M7440 15685 c-957 -77 -1800 -293 -2640 -676 -1274 -582 -2384 -1521
-3173 -2685 -1100 -1624 -1535 -3577 -1231 -5534 169 -1092 595 -2170 1222
-3095 1270 -1875 3277 -3093 5512 -3344 1137 -128 2289 -5 3355 360 1472 502
2740 1423 3682 2674 807 1071 1330 2376 1482 3695 41 356 46 457 46 920 0 539
-17 776 -90 1240 -97 622 -300 1303 -559 1885 -735 1643 -2003 2970 -3606
3771 -867 433 -1757 684 -2760 780 -243 23 -996 28 -1240 9z m555 -332 c36
-115 75 -237 87 -271 l20 -64 280 7 c199 6 279 5 277 -3 -2 -6 -101 -81 -219
-168 -118 -86 -219 -160 -223 -164 -5 -4 30 -126 78 -270 47 -145 84 -266 83
-271 -2 -4 -103 67 -226 158 -123 90 -229 162 -235 160 -7 -3 -109 -77 -227
-165 -118 -88 -216 -156 -218 -152 -2 5 35 127 82 271 48 145 83 266 79 269
-5 4 -106 78 -225 165 -120 88 -218 163 -218 168 0 6 109 7 279 2 l279 -7 10
34 c6 18 43 137 83 263 71 228 77 245 84 245 2 0 33 -93 70 -207z m3635 -1020
c-28 -136 -54 -258 -56 -269 -5 -19 23 -36 245 -154 138 -74 249 -135 247
-137 -1 -2 -129 -19 -282 -39 -153 -19 -282 -38 -285 -42 -4 -4 -31 -127 -60
-274 -30 -148 -56 -268 -59 -268 -3 0 -56 111 -119 246 -63 135 -120 248 -126
250 -6 3 -134 -11 -284 -31 -151 -20 -275 -34 -277 -32 -3 3 281 265 382 353
l36 31 -117 247 c-64 136 -115 250 -112 252 3 3 92 -42 198 -99 107 -57 217
-116 245 -130 l52 -26 207 189 c115 105 210 188 212 186 3 -2 -18 -116 -47
-253z m-7179 32 c112 -102 209 -185 214 -185 6 0 116 61 245 135 129 74 236
133 238 131 2 -3 -46 -117 -107 -255 -61 -138 -111 -252 -111 -255 0 -3 75
-73 168 -157 92 -84 186 -170 210 -192 24 -21 42 -40 40 -41 -2 -2 -122 12
-268 30 -146 18 -272 33 -281 34 -11 0 -47 -75 -125 -255 -60 -140 -112 -255
-115 -255 -3 0 -32 122 -65 271 -50 231 -62 273 -79 280 -11 4 -135 20 -275
35 -140 15 -258 30 -262 33 -4 3 102 68 236 144 l243 137 -62 275 c-33 151
-58 275 -54 275 4 0 98 -83 210 -185z m3844 -485 c1072 -58 2050 -377 2935
-957 1359 -892 2298 -2320 2570 -3908 160 -937 98 -1885 -184 -2780 -341
-1086 -1006 -2067 -1889 -2788 -828 -676 -1822 -1116 -2862 -1266 -331 -48
-442 -55 -865 -55 -423 0 -511 5 -860 55 -592 84 -1190 272 -1750 550 -618
307 -1131 682 -1615 1181 -430 442 -764 915 -1044 1478 -506 1016 -701 2129
-575 3280 188 1720 1157 3292 2624 4256 1037 682 2283 1020 3515 954z m5416
-1921 c78 -129 142 -235 144 -237 1 -1 125 29 276 67 150 39 274 69 276 67 2
-1 -81 -100 -183 -220 l-185 -217 19 -32 c10 -18 76 -126 146 -241 70 -114
126 -209 124 -211 -2 -1 -115 44 -253 101 -137 57 -255 103 -261 103 -9 1
-339 -381 -366 -423 -4 -6 -9 -8 -11 -6 -2 3 6 122 19 265 13 143 23 270 24
281 0 19 -33 35 -255 125 -140 57 -255 107 -255 110 0 4 121 37 269 74 l270
67 6 52 c3 28 12 134 20 236 17 205 25 283 31 278 2 -2 67 -110 145 -239z
m-11292 -220 l1 -175 198 -63 c108 -34 229 -72 267 -84 39 -11 74 -24 78 -28
5 -4 -13 -14 -40 -22 -26 -9 -148 -48 -271 -87 l-222 -71 5 -162 c3 -89 7
-215 10 -279 3 -65 1 -118 -3 -118 -4 1 -77 93 -162 206 -85 113 -162 214
-171 225 -15 20 -19 19 -278 -66 -145 -47 -266 -84 -268 -81 -3 3 67 105 155
228 l160 223 -96 125 c-53 69 -131 171 -175 228 -43 56 -74 102 -69 102 5 0
130 -39 277 -86 147 -47 268 -84 269 -82 2 2 74 104 162 228 l159 225 6 -105
c4 -58 7 -184 8 -281z m-1432 -3675 c208 -74 450 -161 538 -193 l160 -58 7
-39 c4 -22 7 -73 7 -115 l1 -76 -52 -22 c-65 -28 -657 -270 -870 -357 -86 -35
-159 -64 -162 -64 -4 0 -6 53 -6 118 l0 118 120 48 120 48 0 208 0 208 -125
42 -125 42 0 67 c0 38 -3 89 -6 115 -5 30 -3 46 4 46 6 0 181 -61 389 -136z
m13928 81 c275 -19 506 -35 514 -35 12 0 13 -18 8 -101 -4 -56 -8 -103 -9
-104 -2 -2 -183 10 -402 26 -220 16 -401 27 -403 25 -2 -2 22 -11 54 -20 32
-9 209 -65 393 -125 l335 -108 -2 -102 c-1 -57 -4 -105 -6 -108 -3 -2 -194
-37 -424 -76 l-418 -72 390 -27 c215 -14 401 -27 414 -27 24 -1 24 -1 19 -96
-3 -53 -8 -99 -12 -102 -6 -6 -1075 62 -1082 69 -1 2 3 75 9 163 l12 160 330
61 c182 33 347 64 369 68 35 7 12 16 -315 125 l-354 118 1 49 c1 27 5 100 9
162 l7 112 31 0 c18 0 257 -16 532 -35z m-13187 -931 c7 -47 15 -98 18 -113 6
-28 2 -30 -360 -217 -201 -104 -362 -191 -358 -195 4 -3 178 -32 387 -64 209
-32 389 -62 400 -66 17 -6 23 -24 38 -114 10 -60 15 -110 13 -112 -3 -3 -1122
196 -1133 201 -1 1 -10 52 -21 114 l-19 113 21 13 c12 8 107 59 211 114 105
55 321 170 480 256 160 85 295 155 300 156 6 0 17 -39 23 -86z m13599 -356
c-3 -13 -14 -63 -24 -112 -14 -70 -22 -90 -38 -97 -11 -4 -69 -15 -130 -24
-60 -9 -110 -17 -112 -18 -1 -2 -21 -88 -43 -192 -23 -105 -43 -195 -45 -201
-2 -7 44 -41 102 -75 58 -35 108 -70 110 -77 5 -11 -33 -211 -40 -219 -5 -5
-972 617 -975 627 -2 6 6 57 18 115 22 103 23 105 54 110 130 24 1086 183
1105 184 19 1 22 -3 18 -21z m-13365 -710 c15 -56 26 -104 24 -105 -6 -6 -983
-266 -1030 -275 -17 -2 -23 9 -42 73 -41 144 -43 134 18 148 29 6 260 67 513
135 253 69 467 125 475 125 11 1 23 -27 42 -101z m12363 -222 c72 -33 129 -87
155 -147 17 -41 21 -66 18 -129 l-3 -77 36 24 c20 13 60 33 89 44 52 20 441
101 449 94 4 -5 -89 -245 -95 -245 -28 0 -439 -96 -471 -110 -26 -11 -51 -33
-66 -57 -26 -40 -54 -110 -46 -116 2 -2 93 -37 203 -77 109 -41 200 -79 202
-85 6 -15 -61 -188 -74 -193 -6 -2 -125 40 -264 93 -139 53 -361 137 -493 187
-132 51 -244 95 -248 99 -13 10 195 532 237 594 19 29 51 66 71 81 76 58 200
66 300 20z m-12430 -151 c141 -37 246 -128 319 -277 107 -216 94 -381 -41
-517 l-54 -53 -65 92 -65 93 24 26 c92 98 70 273 -47 374 -120 103 -365 61
-527 -90 -129 -120 -120 -302 20 -436 81 -78 85 -79 157 -48 l62 26 -49 109
c-28 60 -46 112 -42 116 14 12 163 74 166 69 18 -23 185 -415 180 -420 -5 -4
-94 -45 -199 -91 l-191 -85 -44 23 c-151 78 -299 271 -340 444 -19 80 -15 203
9 272 46 130 174 258 322 325 132 60 288 78 405 48z m11961 -811 c22 -6 22 -6
-13 -110 l-35 -104 -60 0 c-34 0 -74 -7 -94 -16 -79 -38 -154 -162 -154 -258
0 -121 80 -220 242 -301 86 -42 107 -49 176 -53 65 -4 86 -1 130 18 102 44
176 158 182 280 6 104 6 104 -59 138 l-58 32 -57 -105 c-32 -58 -60 -105 -63
-105 -5 0 -151 78 -161 86 -3 2 214 393 224 403 3 3 17 -2 32 -11 15 -8 99
-55 187 -103 88 -48 162 -89 164 -90 10 -10 16 -135 9 -209 -16 -162 -76 -292
-188 -406 -72 -73 -137 -112 -225 -135 -258 -67 -620 125 -711 375 -26 73 -34
158 -23 229 25 161 157 359 277 417 85 41 191 52 278 28z m-11313 -144 l54
-85 -150 -295 c-82 -162 -168 -328 -190 -369 -45 -84 -55 -86 123 24 278 172
431 265 439 268 11 2 113 -151 109 -164 -3 -9 -905 -569 -916 -569 -4 0 -32
41 -63 91 l-57 90 58 112 c32 62 114 224 183 360 118 233 124 247 94 229 -26
-15 -286 -175 -510 -315 -26 -16 -50 -28 -51 -26 -18 20 -104 164 -101 170 3
4 145 94 317 200 172 106 376 232 453 281 77 48 143 86 147 85 4 -1 32 -40 61
-87z m10876 -1045 c298 -98 541 -182 541 -185 0 -3 -22 -30 -48 -60 -26 -31
-59 -70 -74 -88 l-26 -32 -126 43 -125 43 -133 -158 c-73 -88 -132 -162 -131
-167 1 -4 29 -53 62 -110 34 -56 61 -105 61 -108 0 -13 -145 -172 -151 -166
-13 13 -543 956 -555 986 -7 20 130 190 151 185 7 -2 256 -84 554 -183z
m-10100 -26 c39 -45 71 -86 71 -91 0 -5 -38 -78 -84 -161 -159 -288 -293 -532
-366 -667 -41 -74 -81 -147 -90 -163 l-17 -27 -76 91 -77 90 16 31 c9 17 36
65 61 107 25 42 46 81 46 87 0 5 -59 80 -132 166 l-132 157 -92 -34 c-51 -18
-105 -38 -120 -44 -16 -6 -30 -11 -32 -11 -13 0 -146 172 -139 179 5 5 212 77
459 161 248 85 484 166 525 181 41 16 83 28 92 29 9 0 49 -37 87 -81z m9207
-451 c77 -84 180 -197 230 -253 50 -55 153 -167 227 -250 l136 -149 -56 -51
c-109 -97 -65 -121 -347 190 -136 150 -259 284 -273 296 l-24 24 24 -45 c14
-25 102 -189 197 -365 l172 -320 -78 -72 -78 -71 -351 235 c-192 130 -341 225
-330 212 11 -12 134 -149 274 -302 l254 -280 -74 -68 c-41 -37 -76 -68 -79
-68 -5 1 -670 730 -707 777 l-22 27 116 104 c63 58 121 104 127 104 6 0 76
-43 156 -95 325 -213 470 -307 470 -305 0 2 -77 148 -171 326 -93 177 -169
327 -167 333 3 8 223 212 234 217 1 1 64 -67 140 -151z m-8703 -46 c64 -52
117 -96 117 -98 0 -3 -48 -109 -106 -237 -59 -127 -126 -276 -151 -330 -25
-54 -43 -100 -41 -101 1 -2 125 87 273 196 149 110 282 208 296 218 l26 19
124 -100 c68 -54 124 -103 124 -107 0 -12 -668 -830 -679 -831 -10 -1 -155
111 -156 121 0 3 115 146 255 317 140 171 253 311 252 311 -2 0 -153 -112
-337 -249 l-333 -250 -79 61 c-43 34 -81 64 -83 68 -3 4 18 54 46 111 28 57
80 165 114 239 35 74 93 198 129 275 36 77 60 133 54 125 -267 -330 -502 -610
-509 -610 -18 0 -150 113 -147 125 6 24 673 832 683 827 6 -3 63 -48 128 -100z
m7483 -745 c97 -74 278 -212 574 -436 140 -107 261 -199 269 -206 11 -11 -4
-24 -90 -73 l-103 -61 -65 52 c-36 28 -83 64 -103 80 l-37 29 -165 -97 c-91
-53 -172 -102 -181 -109 -14 -10 -13 -24 10 -135 14 -68 25 -125 25 -126 0 -8
-193 -115 -198 -110 -6 6 -22 91 -127 678 -41 229 -75 426 -75 436 0 13 29 36
93 74 50 31 95 56 98 57 4 0 38 -24 75 -53z m-5872 -293 c58 -27 95 -51 92
-57 -18 -44 -229 -487 -283 -597 -83 -169 -146 -239 -238 -266 -174 -50 -405
63 -450 220 -12 40 -15 76 -11 110 6 58 33 143 47 152 5 3 52 -9 104 -26 l94
-31 -15 -41 c-19 -54 -18 -118 2 -147 28 -40 111 -63 159 -45 31 12 74 92 230
424 163 348 164 350 169 350 2 0 47 -21 100 -46z m5153 -94 c52 -23 129 -93
153 -140 l18 -36 -91 -42 c-51 -23 -96 -42 -101 -42 -4 0 -25 17 -46 39 -44
45 -90 57 -152 41 -61 -17 -136 -60 -159 -91 -25 -35 -24 -84 0 -108 32 -32
85 -35 248 -16 84 10 185 16 225 13 123 -8 205 -64 264 -178 25 -49 29 -66 29
-145 0 -78 -4 -97 -27 -140 -48 -93 -141 -162 -289 -216 -155 -57 -271 -50
-380 23 -55 37 -139 135 -139 162 0 6 42 32 93 57 l92 46 32 -42 c67 -89 171
-105 289 -45 52 27 74 45 92 75 44 77 12 165 -65 180 -19 3 -98 -1 -175 -11
-256 -30 -357 -9 -447 92 -133 152 -70 369 139 474 152 76 294 94 397 50z
m-4464 -172 c72 -24 102 -39 107 -53 7 -16 51 -1017 50 -1117 l0 -26 -109 36
c-127 42 -121 32 -121 197 l0 103 -202 68 c-171 57 -203 65 -212 52 -73 -97
-152 -188 -160 -184 -6 2 -55 19 -108 37 -54 18 -98 36 -98 39 0 3 133 163
296 355 434 513 444 525 451 525 4 0 52 -15 106 -32z m3272 -208 c10 -50 16
-93 13 -95 -2 -3 -72 -18 -154 -34 -82 -15 -148 -33 -147 -38 38 -184 163
-837 163 -850 0 -15 -17 -21 -101 -37 -56 -10 -104 -14 -109 -10 -4 5 -45 200
-90 434 -46 234 -84 426 -85 428 -2 2 -71 -10 -154 -26 -84 -16 -153 -26 -155
-23 -6 10 -38 173 -34 176 2 2 156 33 343 69 187 36 369 72 405 80 36 8 70 14
76 15 7 1 19 -38 29 -89z m-2201 5 c89 -19 182 -63 235 -110 50 -46 102 -149
109 -215 l5 -50 -80 0 c-44 0 -94 -3 -109 -6 -28 -5 -30 -3 -42 40 -6 26 -28
63 -48 85 -48 54 -109 76 -209 76 -71 0 -86 -4 -135 -31 -106 -59 -164 -190
-164 -369 -1 -107 15 -160 68 -230 66 -86 220 -119 356 -75 38 12 74 27 79 34
5 6 12 38 16 71 l6 61 -116 16 c-64 9 -118 18 -121 21 -3 2 0 43 7 91 12 83
13 86 38 86 38 -1 431 -57 437 -63 7 -6 -51 -411 -61 -426 -12 -20 -105 -62
-183 -83 -102 -27 -279 -29 -371 -4 -97 26 -179 72 -242 135 -98 98 -141 215
-141 381 0 273 132 482 350 557 81 27 210 31 316 8z m1075 -102 c20 -42 289
-655 375 -852 42 -96 74 -176 72 -179 -2 -2 -55 -6 -118 -9 l-114 -6 -48 114
c-26 63 -51 117 -55 122 -4 4 -100 4 -214 1 l-206 -7 -38 -121 -39 -121 -44
-7 c-66 -10 -190 -9 -190 1 0 5 29 91 65 192 35 101 119 341 185 533 66 192
123 352 126 357 3 5 56 9 118 9 l113 0 12 -27z"/>
<path d="M7501 12468 c-118 -299 -225 -565 -238 -591 -25 -51 -65 -77 -118
-77 -25 0 -25 0 -25 -95 l0 -95 275 0 275 0 0 94 0 94 -57 4 c-42 4 -61 10
-74 27 -19 24 -19 25 27 154 l28 77 217 0 217 0 31 -93 c40 -120 40 -134 -4
-153 -19 -7 -50 -14 -70 -14 l-35 0 0 -95 0 -95 335 0 335 0 0 95 c0 93 0 95
-24 95 -50 0 -83 20 -109 68 -14 26 -87 205 -163 397 -75 193 -172 438 -214
545 l-77 195 -159 3 -159 2 -214 -542z m384 -14 c36 -98 65 -181 65 -186 0 -4
-63 -8 -141 -8 -77 0 -139 4 -137 8 2 5 34 90 72 190 38 101 71 181 73 179 2
-3 33 -85 68 -183z"/>
<path d="M9808 12608 l-46 -83 49 -29 c58 -33 83 -65 72 -92 -7 -20 -415 -753
-440 -790 -24 -37 -60 -39 -122 -6 l-56 29 -46 -81 c-26 -45 -44 -84 -41 -87
4 -4 139 -79 301 -168 l295 -160 16 27 c9 15 30 52 47 83 l31 55 -48 27 c-57
32 -72 49 -72 81 0 24 11 47 124 249 l50 87 50 -27 c28 -15 52 -32 54 -38 2
-5 26 -174 54 -374 27 -200 51 -365 52 -366 2 -2 90 -51 197 -110 178 -98 195
-105 205 -88 6 10 28 48 48 85 35 62 37 67 19 73 -34 10 -100 64 -115 92 -14
28 -120 523 -113 530 3 2 17 -1 32 -7 48 -18 179 -24 247 -11 120 24 198 83
253 191 54 107 53 208 -5 327 -33 66 -99 134 -193 196 -60 40 -834 467 -846
467 -4 0 -28 -37 -53 -82z m697 -535 c60 -43 85 -86 85 -146 0 -120 -109 -199
-231 -167 -33 9 -318 148 -337 165 -1 1 38 74 88 163 l91 160 129 -71 c71 -40
149 -87 175 -104z"/>
<path d="M5610 12441 c-52 -36 -54 -40 -52 -78 l3 -39 -74 -12 c-101 -15 -174
-44 -262 -103 -179 -120 -283 -313 -256 -477 27 -168 163 -296 326 -310 94 -7
210 14 402 74 209 65 284 84 344 84 92 0 152 -74 129 -158 -22 -83 -161 -185
-290 -213 -124 -26 -308 5 -430 73 l-55 31 -62 -69 c-35 -37 -63 -71 -63 -74
0 -3 87 -92 193 -198 l192 -192 63 41 c44 29 61 46 58 58 -2 9 -7 32 -10 51
l-6 36 94 12 c172 22 292 80 416 202 199 195 226 450 66 627 -97 107 -239 145
-412 109 -44 -8 -165 -43 -269 -77 -170 -56 -199 -62 -276 -63 -74 -1 -90 2
-109 19 -105 94 40 261 257 296 92 15 195 0 307 -44 l79 -31 58 65 c32 35 58
69 59 74 0 9 -353 326 -362 325 -1 -1 -28 -18 -58 -39z"/>
<path d="M7704 10138 c-52 -48 -118 -168 -116 -209 2 -32 -42 -62 -116 -80
-26 -7 -48 -13 -49 -13 -1 -1 4 -25 12 -54 l13 -52 -46 -50 -47 -49 -72 7 -73
8 0 -27 c0 -20 -9 -34 -32 -50 -65 -44 -120 -105 -153 -169 -45 -90 -104 -160
-182 -218 -62 -47 -69 -50 -145 -56 -107 -9 -168 -42 -168 -91 0 -18 -7 -52
-15 -75 -8 -23 -15 -61 -15 -83 l0 -40 -37 7 c-21 3 -79 6 -130 6 -83 0 -94 2
-121 25 -18 15 -42 25 -62 25 -30 0 -33 -4 -76 -96 -38 -82 -43 -101 -38 -137
4 -23 13 -52 20 -64 8 -12 14 -35 14 -51 0 -17 15 -49 35 -78 28 -40 35 -58
35 -97 0 -27 7 -64 16 -83 18 -38 78 -89 122 -105 36 -12 58 -56 67 -135 4
-32 13 -66 20 -74 7 -8 16 -36 19 -61 6 -39 12 -49 36 -59 17 -7 33 -24 39
-42 10 -27 14 -29 42 -23 24 5 36 2 54 -15 22 -20 30 -22 87 -16 37 5 79 17
103 32 23 13 45 24 48 24 4 0 7 -19 7 -42 0 -33 6 -49 25 -67 l25 -23 70 22
c55 18 75 20 99 12 29 -10 30 -10 36 29 5 30 13 43 32 50 33 12 30 13 48 -21
9 -16 21 -30 27 -30 7 0 21 -11 33 -25 l20 -25 80 21 79 21 20 -29 c12 -15 38
-47 60 -70 37 -41 41 -43 97 -43 42 0 59 4 59 13 0 7 32 30 71 51 140 76 164
112 157 235 -4 77 -4 80 19 86 31 7 29 30 -7 98 -46 87 -42 104 40 180 39 36
99 87 135 114 59 44 64 51 65 86 0 43 -13 73 -42 97 -19 15 -19 16 1 60 11 25
21 58 21 73 0 16 9 40 20 54 11 14 20 39 20 54 0 16 2 29 5 29 3 0 24 -13 46
-30 23 -16 57 -32 76 -36 72 -14 158 38 146 86 -8 31 -49 58 -107 70 -44 9
-54 15 -63 40 -7 18 -19 30 -30 30 -10 0 -29 9 -43 20 -14 11 -37 20 -52 20
-23 0 -28 5 -28 23 0 15 9 28 24 35 23 10 24 14 19 74 -5 59 -8 66 -56 116
-41 41 -58 52 -83 52 -26 0 -34 6 -44 30 -7 17 -10 33 -8 36 3 3 37 8 75 11
l70 6 -34 67 c-18 38 -33 75 -33 83 0 31 38 49 117 56 76 6 78 7 75 31 -2 14
-15 37 -29 52 l-25 26 43 6 c24 3 71 8 104 12 78 8 95 18 95 55 0 24 -8 35
-47 59 -33 21 -60 30 -88 30 -29 0 -47 6 -60 20 -10 11 -29 20 -43 20 -13 0
-60 12 -103 27 -76 25 -79 28 -79 57 0 28 -10 38 -87 91 -48 33 -93 64 -100
68 -8 5 -29 -7 -59 -35z"/>
<path d="M10015 9818 c-11 -30 -35 -145 -35 -166 0 -21 3 -23 33 -17 45 10 57
23 57 61 0 19 3 34 8 34 4 0 15 7 25 14 14 11 17 22 12 50 -7 35 -9 36 -51 36
-27 0 -46 -5 -49 -12z"/>
<path d="M10479 9455 l-44 -34 -5 -91 c-4 -74 -3 -89 9 -85 7 3 33 10 56 16
38 10 44 15 53 49 13 51 3 180 -13 180 -7 0 -32 -16 -56 -35z"/>
<path d="M2845 9383 c7 -74 9 -80 55 -133 108 -124 180 -180 338 -259 146 -73
215 -140 237 -229 11 -44 13 -46 81 -70 137 -49 217 -117 228 -195 4 -25 25
-80 46 -122 22 -42 40 -83 40 -91 0 -17 28 -30 83 -39 20 -3 37 -10 37 -14 0
-5 16 -28 35 -52 19 -24 38 -59 41 -77 4 -22 15 -37 34 -47 65 -34 150 -169
150 -240 0 -22 3 -57 6 -77 7 -38 7 -38 53 -38 45 0 47 -1 71 -47 35 -66 113
-147 164 -172 25 -11 47 -29 51 -40 14 -45 146 -148 338 -264 108 -65 218
-138 245 -163 56 -50 91 -57 115 -21 8 12 31 31 51 41 36 19 36 19 59 -2 27
-26 72 -29 81 -6 3 9 6 46 6 83 0 53 4 74 20 94 24 30 25 50 5 67 -8 7 -15 24
-15 39 0 15 -7 37 -16 49 -11 16 -14 31 -8 50 7 25 12 108 14 211 1 72 -32
103 -205 193 -82 42 -160 88 -173 102 -20 19 -26 39 -31 93 -4 38 -14 79 -24
94 -16 24 -25 27 -99 32 -89 6 -98 12 -98 66 0 19 -8 43 -17 53 -15 17 -15 20
10 46 15 16 31 43 36 60 11 38 2 50 -76 94 -41 23 -52 34 -47 47 12 27 17 102
7 112 -5 5 -43 6 -86 3 l-77 -7 0 -43 c0 -41 2 -44 27 -44 39 0 16 -17 -35
-25 l-42 -7 -21 46 c-11 25 -28 50 -38 56 -11 5 -34 28 -51 50 -28 35 -31 45
-22 64 8 18 6 29 -8 52 -17 27 -23 29 -65 26 -41 -4 -46 -7 -42 -24 5 -17 2
-18 -24 -13 -16 4 -35 2 -42 -3 -22 -17 -67 -23 -88 -11 -23 12 -58 82 -59
116 0 18 -14 29 -67 53 -38 17 -84 46 -103 64 -77 71 -129 106 -157 106 -18 0
-38 9 -51 23 -12 13 -53 38 -92 57 -66 32 -70 36 -70 67 0 28 -4 33 -24 33
-17 0 -30 11 -45 36 -12 19 -21 42 -21 50 0 8 -9 14 -20 14 -13 0 -28 12 -38
31 l-17 30 -100 -8 c-55 -4 -135 -8 -177 -8 -65 0 -80 3 -100 23 -15 13 -37
22 -56 22 -18 0 -32 5 -32 10 0 6 -21 10 -46 10 l-46 0 7 -77z"/>
<path d="M10343 9280 c-58 -35 -66 -73 -52 -240 8 -103 17 -156 30 -183 11
-21 19 -53 19 -71 0 -21 6 -36 15 -40 8 -3 15 -16 15 -29 0 -24 28 -56 67 -76
61 -31 71 9 21 83 -53 76 -58 88 -58 144 0 28 2 52 5 52 3 0 31 -13 62 -30 62
-33 117 -39 127 -14 13 35 5 54 -33 78 -22 14 -42 34 -46 45 -9 31 15 97 41
111 22 12 22 13 6 49 -9 20 -17 37 -18 39 -1 2 -15 -3 -31 -12 -29 -14 -61
-48 -132 -135 -18 -23 -35 -40 -38 -38 -11 12 12 81 34 101 23 21 23 26 17
104 -4 45 -10 82 -13 82 -3 0 -21 -9 -38 -20z"/>
<path d="M9625 9089 c-65 -63 -85 -88 -85 -108 0 -30 -28 -45 -110 -57 -25 -4
-57 -13 -72 -20 -37 -19 -118 -18 -132 1 -14 19 -118 38 -166 30 -28 -5 -56 1
-111 22 -52 19 -88 27 -120 25 -43 -3 -47 -6 -55 -35 -8 -28 -17 -34 -74 -53
-57 -18 -65 -24 -72 -53 -6 -22 -19 -37 -42 -48 -30 -14 -34 -21 -42 -72 -5
-32 -5 -96 0 -151 8 -91 7 -95 -15 -113 -18 -14 -23 -27 -20 -52 2 -26 -3 -37
-22 -49 -31 -21 -46 -71 -39 -135 4 -48 6 -52 27 -47 19 5 24 1 29 -27 5 -26
2 -36 -15 -49 -12 -10 -27 -18 -35 -18 -8 0 -14 -10 -14 -25 0 -17 -8 -29 -22
-36 -21 -9 -23 -17 -23 -90 0 -90 -10 -80 99 -99 33 -5 60 -11 61 -12 2 -2 12
-36 23 -76 19 -68 20 -76 5 -115 -9 -23 -17 -67 -19 -97 -2 -30 -7 -76 -10
-102 -5 -38 -2 -54 16 -83 34 -55 50 -59 112 -27 29 16 72 41 96 55 l42 27 -6
53 c-3 28 -13 138 -23 244 -16 171 -21 196 -45 236 -14 25 -26 50 -26 56 0 6
18 11 39 11 28 0 49 8 71 26 17 15 33 24 36 21 3 -3 6 -50 6 -104 0 -130 13
-183 44 -183 13 0 38 -15 58 -35 20 -19 39 -35 45 -35 5 0 12 -19 15 -43 15
-101 75 -139 114 -72 15 24 41 45 91 69 38 20 77 46 85 58 36 51 9 114 -53
124 l-37 6 -11 91 c-10 87 -12 92 -47 122 -33 28 -66 75 -66 95 0 5 14 11 30
15 33 7 35 14 18 62 -12 32 -15 34 -48 28 -36 -7 -50 -19 -50 -46 0 -21 -9
-29 -26 -22 -30 11 -7 109 35 147 10 9 40 19 67 23 40 5 57 14 91 49 24 23 64
50 90 60 27 9 51 20 54 23 4 3 9 28 13 55 l6 49 -67 -6 c-52 -4 -71 -10 -84
-26 -26 -32 -106 -58 -203 -66 l-89 -7 -54 -50 c-48 -46 -56 -50 -88 -45 -76
12 -203 144 -190 197 3 14 9 48 12 77 l5 51 59 26 c33 14 86 38 120 53 l61 27
81 -27 c69 -22 94 -25 157 -20 41 3 84 10 94 16 11 5 75 11 142 12 l122 1 95
57 c150 90 194 128 203 179 14 81 -1 138 -37 138 -11 0 -56 -35 -104 -81z"/>
<path d="M11022 8866 c-78 -29 -82 -32 -76 -56 11 -49 22 -53 112 -46 55 5 88
3 97 -4 10 -8 15 -2 22 27 13 54 6 71 -35 92 l-37 18 -83 -31z"/>
<path d="M3000 8830 c0 -23 32 -70 62 -93 54 -40 138 -61 138 -35 0 34 -45
100 -81 118 -40 21 -119 27 -119 10z"/>
<path d="M12130 8815 c0 -9 15 -31 34 -50 19 -19 37 -43 41 -55 5 -15 15 -20
44 -20 44 0 101 18 101 31 0 21 -33 58 -57 64 -15 3 -38 15 -51 26 -31 24
-112 27 -112 4z"/>
<path d="M11333 8795 c-12 -8 -63 -37 -115 -63 -86 -45 -95 -52 -120 -102 -16
-30 -28 -64 -28 -77 0 -24 1 -24 68 -18 37 3 83 2 102 -3 l35 -8 9 -81 9 -81
42 -20 c36 -17 46 -19 61 -8 46 32 154 25 154 -10 0 -28 -32 -42 -105 -49 -82
-8 -119 -28 -127 -69 -5 -22 -2 -24 61 -29 63 -5 68 -7 109 -52 29 -33 42 -56
42 -76 0 -16 -4 -29 -10 -29 -5 0 -10 -14 -10 -30 0 -41 42 -85 68 -71 37 20
91 91 102 133 6 24 16 56 22 72 13 33 55 86 69 86 17 0 9 -57 -11 -83 -25 -32
-25 -35 6 -81 l26 -38 67 6 c36 3 82 2 101 -2 32 -8 35 -11 32 -43 -2 -32 1
-35 44 -53 38 -16 60 -17 142 -12 l97 7 27 -54 c25 -52 28 -54 74 -61 72 -10
108 -7 149 9 42 18 58 15 113 -25 65 -47 92 -92 128 -211 38 -129 68 -178 130
-210 41 -22 56 -39 35 -39 -4 0 -20 -11 -35 -25 -20 -18 -26 -34 -26 -65 0
-35 -4 -43 -29 -58 -31 -17 -41 -48 -41 -130 l0 -44 68 7 c124 11 134 14 127
36 -7 21 8 23 55 10 19 -6 33 -1 61 21 20 15 47 28 60 28 13 0 42 14 63 30 68
51 122 35 209 -60 l57 -63 0 304 c0 167 -3 489 -7 715 l-6 410 -111 18 c-61 9
-129 20 -151 23 -22 3 -67 18 -100 33 -74 34 -183 59 -292 67 -76 5 -83 8 -83
27 0 12 -8 31 -18 44 -16 20 -23 22 -80 16 -42 -5 -62 -11 -62 -20 0 -8 -12
-24 -26 -37 -14 -12 -34 -38 -44 -58 -15 -29 -26 -37 -57 -42 -63 -11 -75 -9
-69 11 2 9 7 31 11 47 l6 31 -63 -6 c-35 -4 -80 -2 -102 3 -30 8 -40 7 -47 -4
-15 -24 -10 -45 16 -69 22 -20 36 -24 93 -25 60 0 67 -2 70 -21 2 -15 -11 -32
-43 -58 -39 -32 -45 -42 -45 -76 0 -31 -4 -39 -23 -44 -38 -9 -77 -45 -77 -71
0 -20 -8 -26 -52 -39 -115 -33 -108 -34 -109 15 -1 67 -10 79 -79 108 -54 23
-70 36 -94 74 -25 41 -31 63 -42 178 -12 119 -15 134 -39 159 -18 19 -33 26
-49 23 -13 -3 -42 5 -64 16 -23 12 -58 20 -79 20 -21 -1 -55 6 -75 15 -47 20
-146 21 -175 1z"/>
<path d="M3388 8553 c-34 -13 -37 -18 -31 -42 13 -56 26 -78 78 -127 50 -49
56 -52 88 -44 19 4 40 10 46 14 16 10 14 61 -5 121 -16 49 -21 54 -68 74 -60
25 -60 25 -108 4z"/>
<path d="M10311 8530 c-11 -16 -21 -36 -21 -44 0 -8 30 -33 68 -55 53 -31 74
-38 100 -34 27 4 32 9 32 33 0 22 -6 30 -29 38 -18 7 -31 19 -33 32 -2 16 -16
28 -49 41 l-46 18 -22 -29z"/>
<path d="M5046 8378 c-12 -17 -14 -35 -10 -71 l7 -48 -52 7 -51 7 1 -29 c2
-52 12 -75 29 -64 10 6 11 10 3 10 -7 0 -13 11 -13 25 0 21 5 25 29 25 16 0
32 -6 34 -12 4 -10 6 -10 6 0 1 8 19 12 55 12 49 0 54 2 49 20 -4 17 0 20 23
20 56 0 74 10 74 41 0 16 -4 29 -10 29 -5 0 -10 -11 -10 -25 0 -24 -3 -25 -54
-25 -58 0 -63 3 -76 52 -10 34 -12 33 88 12 25 -5 32 -3 32 8 0 11 -15 17 -46
22 -75 10 -92 7 -108 -16z"/>
<path d="M9627 8383 c-33 -5 -47 -34 -47 -95 l0 -40 43 5 c23 4 77 9 120 13
84 7 94 14 83 59 -6 23 -11 25 -60 25 -40 0 -57 5 -71 20 -10 11 -23 19 -29
19 -6 -1 -24 -4 -39 -6z"/>
<path d="M10849 8201 c-26 -4 -53 -12 -61 -19 -21 -17 -164 -28 -181 -13 -9 7
-31 9 -62 4 l-48 -6 6 -59 c3 -33 8 -63 12 -66 7 -7 68 -7 311 -1 l150 4 33
-37 c39 -45 81 -56 133 -34 43 18 43 16 -16 134 l-35 70 -68 11 c-106 18 -125
19 -174 12z"/>
<path d="M3762 8103 c-21 -4 -21 -6 -7 -26 19 -27 19 -37 0 -37 -64 0 45 -175
145 -234 31 -18 32 -18 27 0 -5 16 -13 67 -33 212 -3 17 -9 32 -14 32 -5 0
-16 14 -25 30 -16 30 -32 35 -93 23z"/>
<path d="M10069 8062 c-18 -48 -10 -87 28 -137 l38 -48 65 6 c36 3 80 11 98
18 31 11 33 14 28 43 -4 17 -22 54 -42 83 l-35 52 -86 3 c-82 3 -86 2 -94 -20z"/>
<path d="M5383 8023 c-7 -2 -13 -14 -13 -25 0 -20 -15 -21 -64 -2 -12 5 -14 0
-9 -29 5 -33 4 -35 -31 -41 -20 -4 -36 -11 -36 -15 0 -17 37 -39 91 -55 35
-10 85 -37 132 -71 99 -73 187 -105 200 -72 2 7 -2 29 -10 50 -12 28 -21 37
-39 37 -17 0 -24 6 -24 19 0 11 -13 29 -29 40 -15 11 -38 44 -50 72 -33 75
-77 109 -118 92z"/>
<path d="M11668 7704 c-32 -14 -37 -21 -40 -52 -3 -31 -7 -38 -35 -46 -31 -8
-33 -12 -33 -52 0 -29 4 -44 13 -44 20 0 34 13 42 40 9 30 22 40 56 40 16 0
33 10 47 30 25 34 26 40 10 75 -13 29 -12 29 -60 9z"/>
<path d="M9430 7686 c-32 -10 -35 -14 -38 -56 -2 -32 -11 -53 -29 -72 -25 -26
-25 -26 -7 -58 19 -32 19 -32 -3 -47 -19 -13 -23 -25 -23 -64 0 -41 3 -49 18
-49 28 0 55 24 67 61 9 25 19 35 43 41 27 7 32 13 32 40 0 17 -7 39 -16 49
-14 16 -13 21 6 59 18 36 20 46 9 71 -15 38 -17 39 -59 25z"/>
<path d="M11981 7674 c-12 -15 -21 -41 -21 -59 0 -28 -4 -33 -32 -41 -27 -8
-34 -15 -36 -42 -3 -31 -2 -32 37 -32 31 0 43 -5 51 -21 13 -24 16 -21 -35
-40 -40 -15 -40 -16 -37 -64 1 -27 4 -51 7 -53 2 -2 20 -1 40 2 29 6 35 11 35
31 0 31 26 45 84 45 53 0 50 -12 36 145 -13 137 -21 155 -71 155 -29 0 -42 -6
-58 -26z"/>
<path d="M9210 7587 c0 -13 -7 -44 -16 -70 -8 -25 -14 -55 -12 -66 3 -20 3
-20 45 -1 49 22 73 61 73 120 l0 40 -45 0 c-40 0 -45 -2 -45 -23z"/>
<path d="M11338 7243 c-46 -48 -84 -122 -96 -193 -6 -30 -9 -56 -8 -58 2 -1
20 4 42 11 33 12 40 19 44 49 3 24 17 45 43 68 65 56 87 120 43 120 -17 0 -26
6 -28 21 -3 18 -7 16 -40 -18z"/>
<path d="M5635 7050 c-44 -9 -96 -23 -116 -30 l-35 -12 4 -62 c4 -60 3 -63
-40 -115 -35 -42 -44 -59 -39 -80 3 -18 6 -21 9 -9 5 23 68 32 216 31 89 0
120 -4 126 -14 35 -61 56 -88 85 -108 32 -21 40 -22 142 -16 61 3 114 2 122
-3 7 -6 16 -40 21 -81 4 -40 11 -75 15 -79 4 -4 4 25 0 64 -7 64 -5 74 13 92
12 12 41 23 72 27 44 6 55 4 73 -13 15 -13 43 -22 87 -26 184 -18 185 -18 202
-39 16 -21 19 -21 143 -10 87 8 134 9 149 1 33 -14 220 6 253 27 40 27 183 12
224 -22 32 -27 98 -40 145 -29 l27 7 -6 75 c-3 41 -11 82 -18 90 -7 9 -34 26
-60 40 -26 13 -50 28 -54 34 -4 6 -58 10 -133 10 -123 0 -127 1 -154 27 -26
24 -28 25 -28 7 0 -11 -5 -25 -12 -32 -17 -17 -84 -15 -102 4 -20 19 -20 24 0
53 15 21 22 23 65 17 27 -4 49 -3 49 1 -1 38 -93 71 -215 77 -69 4 -108 11
-139 25 -23 12 -57 21 -74 21 -28 0 -34 -6 -53 -46 -31 -66 -53 -76 -192 -89
-145 -15 -162 -11 -277 65 -68 45 -87 52 -125 52 -25 -1 -54 -6 -66 -13 -17
-9 -31 -5 -82 21 -34 18 -73 43 -88 56 -29 27 -26 27 -134 4z"/>
<path d="M10190 7020 c-73 -15 -91 -27 -88 -60 2 -28 5 -30 33 -25 16 2 60 7
97 10 77 7 94 20 77 59 -10 21 -19 26 -48 25 -20 -1 -52 -5 -71 -9z"/>
<path d="M7138 6962 c-36 -17 -36 -18 -25 -52 18 -53 46 -62 163 -50 105 11
124 21 124 67 0 20 -5 23 -38 23 -22 0 -61 7 -88 15 -63 19 -90 18 -136 -3z"/>
<path d="M9822 6900 c-51 -8 -62 -21 -62 -73 l0 -38 48 6 c26 4 64 11 84 16
39 10 78 50 78 80 0 16 -7 19 -52 18 -29 -1 -73 -5 -96 -9z"/>
<path d="M10335 6880 c-33 -3 -78 -15 -100 -27 -41 -21 -113 -37 -216 -48 -51
-6 -56 -8 -67 -39 -15 -41 -154 -166 -185 -166 -32 -1 -99 -34 -124 -61 -27
-30 -43 -89 -43 -157 0 -51 1 -53 23 -47 40 12 221 107 245 129 26 23 65 95
76 138 6 24 11 27 73 33 94 9 176 50 244 122 46 50 60 59 98 63 29 3 48 12 57
25 20 30 -7 41 -81 35z"/>
<path d="M8843 6808 c-18 -5 -40 -20 -50 -34 -33 -48 -53 -64 -78 -64 -18 0
-25 -5 -25 -20 0 -14 7 -20 24 -20 13 0 29 -7 36 -15 8 -9 29 -15 55 -15 24 0
66 -7 94 -17 43 -13 56 -14 79 -3 15 7 59 16 98 20 39 5 96 20 127 34 31 13
80 27 110 31 30 4 72 17 93 29 31 17 40 28 42 55 3 32 2 33 -25 27 -15 -4 -61
-23 -101 -43 -57 -29 -88 -37 -145 -41 -64 -4 -81 0 -152 28 -134 54 -147 57
-182 48z"/>
<path d="M8343 6725 c-21 -17 -33 -35 -33 -51 0 -16 -8 -28 -25 -36 -21 -9
-27 -8 -42 10 -16 19 -25 21 -99 15 l-81 -6 -7 -60 c-3 -33 -6 -73 -6 -89 l0
-29 53 7 c41 5 60 14 88 41 32 30 46 36 109 44 40 5 84 16 96 24 14 9 47 15
81 15 67 0 69 2 105 56 l27 42 -38 16 c-20 10 -56 16 -81 15 -25 -1 -61 1 -80
5 -29 5 -41 2 -67 -19z"/>
<path d="M7614 6702 c-6 -4 -16 -21 -21 -38 -16 -45 1 -73 70 -113 54 -32 57
-36 63 -82 9 -67 24 -52 17 16 l-6 55 38 16 c37 15 39 15 54 -4 9 -11 27 -25
40 -32 24 -12 29 -9 98 63 40 42 73 83 73 92 0 12 -13 15 -55 15 -60 0 -110
-19 -137 -53 l-17 -22 -10 28 c-8 21 -17 27 -41 27 -19 0 -34 7 -42 20 -10 16
-24 20 -63 20 -27 0 -55 -4 -61 -8z"/>
<path d="M9265 6547 c-55 -36 -64 -38 -110 -32 l-51 6 -16 -51 c-9 -27 -15
-50 -14 -50 2 0 17 5 34 11 22 7 41 8 64 1 18 -6 53 -14 77 -17 43 -7 44 -7
37 19 -6 24 -4 26 24 26 16 0 30 -1 30 -3 0 -1 -4 -16 -9 -33 -9 -31 -8 -31
42 -47 28 -9 53 -15 55 -12 2 2 -5 17 -17 33 -12 17 -21 34 -21 39 0 5 22 15
49 22 27 7 57 22 68 33 18 20 18 21 -7 13 -14 -4 -29 -8 -33 -9 -5 0 -14 15
-20 34 -11 31 -17 35 -67 45 -55 11 -55 11 -115 -28z"/>
<path d="M8611 6503 c-32 -4 -33 -6 -27 -41 3 -20 6 -45 6 -54 0 -12 15 -19
58 -28 124 -24 153 -33 197 -62 43 -29 51 -30 107 -24 34 3 63 8 66 11 2 2 1
20 -2 40 -5 27 -14 38 -39 49 -18 7 -41 26 -51 41 -28 42 -97 67 -196 70 -47
2 -100 1 -119 -2z"/>
<path d="M7650 6319 c-19 -5 -69 -9 -110 -9 l-76 0 4 -40 c3 -31 8 -40 23 -40
15 0 19 7 19 35 0 24 5 35 15 35 10 0 15 -10 15 -30 0 -29 1 -30 48 -30 26 0
64 3 85 6 35 6 37 8 37 45 0 42 -2 43 -60 28z"/>
<path d="M5375 5391 c-22 -10 -67 -47 -100 -82 -122 -130 -751 -852 -772 -887
-13 -21 -23 -53 -23 -75 0 -30 5 -40 25 -49 56 -25 92 7 401 361 159 181 293
330 297 330 5 1 6 -2 4 -6 -3 -5 -78 -206 -167 -448 -110 -298 -164 -458 -167
-496 -5 -52 -4 -57 23 -78 35 -27 72 -23 120 14 49 37 832 933 855 977 23 45
24 72 3 92 -22 23 -64 20 -104 -8 -19 -13 -165 -172 -325 -354 -159 -182 -291
-329 -293 -328 -1 2 74 214 168 472 94 258 172 486 173 506 3 65 -49 91 -118
59z"/>
<path d="M10261 5144 c-20 -14 -23 -23 -18 -60 3 -27 16 -58 33 -81 16 -21
207 -234 426 -474 420 -461 442 -482 502 -459 33 12 354 299 362 322 15 48
-45 140 -101 154 -44 11 -67 -4 -199 -121 -71 -63 -132 -115 -135 -115 -4 0
-172 182 -374 404 -409 450 -435 472 -496 430z"/>
<path d="M9795 4838 c-73 -42 -67 -69 134 -723 95 -308 184 -582 197 -608 38
-74 111 -109 149 -70 23 22 16 66 -35 224 -22 70 -40 131 -40 136 0 5 66 46
146 92 l146 84 117 -121 c73 -76 126 -123 144 -128 69 -16 92 83 39 167 -46
71 -864 921 -906 942 -42 20 -63 21 -91 5z m220 -337 c33 -36 119 -131 190
-209 72 -79 130 -148 130 -153 0 -14 -198 -130 -206 -121 -11 12 -188 552
-181 551 4 -1 34 -31 67 -68z"/>
<path d="M6225 4774 c-16 -8 -41 -25 -54 -37 -60 -56 -799 -904 -823 -945 -48
-81 -35 -162 25 -162 36 0 61 22 194 176 l71 82 143 -75 c79 -41 147 -78 151
-82 4 -3 -8 -62 -27 -131 -47 -168 -51 -204 -31 -235 10 -14 26 -25 39 -25 36
0 93 45 115 92 29 62 323 1184 324 1238 2 65 -9 90 -48 106 -41 17 -42 17 -79
-2z m-141 -550 c-42 -148 -79 -272 -83 -276 -6 -6 -201 89 -218 105 -2 3 80
105 183 226 103 122 189 220 191 217 2 -2 -31 -124 -73 -272z"/>
<path d="M9319 4568 c-6 -12 -11 -41 -11 -65 1 -33 166 -594 252 -855 5 -16 7
-28 5 -28 -2 0 -135 165 -296 368 -347 436 -361 452 -406 452 -49 0 -76 -46
-70 -120 5 -49 322 -1101 361 -1193 47 -114 146 -114 146 -1 0 35 -135 495
-241 818 -10 33 -18 61 -16 62 1 1 97 -117 212 -263 374 -475 404 -511 440
-533 73 -45 134 5 121 100 -7 53 -349 1168 -373 1215 -25 50 -44 65 -79 65
-24 0 -37 -6 -45 -22z"/>
<path d="M6843 4476 c-73 -34 -130 -97 -173 -191 -46 -99 -60 -155 -60 -243 0
-135 43 -212 185 -332 102 -85 119 -114 119 -195 -1 -88 -50 -176 -116 -211
-39 -20 -117 -18 -155 6 -54 32 -66 69 -72 215 -4 72 -10 136 -14 143 -15 22
-66 14 -93 -15 -40 -43 -57 -120 -52 -242 5 -122 25 -182 85 -243 81 -83 234
-110 338 -59 143 70 266 302 265 500 -1 126 -48 206 -190 327 -98 84 -130 131
-130 191 1 78 63 163 129 178 44 9 106 -11 135 -45 28 -34 33 -56 40 -178 2
-45 10 -89 16 -97 33 -40 105 6 132 83 7 20 13 78 13 127 0 78 -4 97 -28 147
-68 139 -235 198 -374 134z"/>
<path d="M7586 4340 c-14 -17 -30 -48 -35 -68 -18 -67 -171 -1166 -171 -1225
0 -83 20 -117 71 -117 30 0 52 21 73 71 20 48 189 1245 181 1285 -8 44 -41 84
-70 84 -14 0 -34 -13 -49 -30z"/>
<path d="M8112 4329 c-149 -74 -221 -241 -229 -534 -13 -419 112 -758 314
-853 78 -36 184 -38 258 -4 166 76 248 272 247 592 -1 325 -76 588 -207 725
-75 77 -137 105 -241 105 -70 0 -89 -4 -142 -31z m224 -210 c102 -49 171 -216
195 -472 22 -225 -27 -422 -118 -483 -70 -45 -139 -36 -209 28 -93 86 -143
247 -151 490 -6 169 3 248 38 328 51 115 145 158 245 109z"/>
<path d="M1040 7686 c0 -75 3 -136 7 -136 11 0 356 132 365 140 6 5 -72 33
-359 128 -10 3 -13 -28 -13 -132z"/>
<path d="M14618 6551 c-103 -15 -189 -29 -192 -32 -5 -4 315 -201 330 -203 4
-1 18 46 30 104 34 157 34 160 26 159 -4 -1 -91 -13 -194 -28z"/>
<path d="M14133 5710 c-18 -10 -39 -29 -47 -42 -15 -23 -116 -281 -116 -295 0
-5 54 -28 121 -52 100 -37 122 -42 130 -30 5 8 30 70 55 139 57 154 62 205 21
248 -26 27 -83 52 -118 52 -8 0 -28 -9 -46 -20z"/>
<path d="M13072 3548 c50 -84 97 -163 105 -176 13 -22 15 -20 98 77 47 55 85
104 85 108 0 7 -356 143 -374 143 -3 0 36 -69 86 -152z"/>
<path d="M2922 3509 c-101 -37 -185 -69 -188 -71 -2 -3 35 -51 83 -107 69 -82
88 -100 98 -89 15 17 197 330 193 332 -2 2 -85 -28 -186 -65z"/>
<path d="M11270 2269 c1 -16 80 -382 84 -386 2 -3 57 26 121 65 l116 69 -148
118 c-179 143 -173 138 -173 134z"/>
<path d="M5912 1547 c-68 -84 -123 -156 -122 -162 3 -10 240 -98 247 -92 2 2
2 94 1 205 l-3 201 -123 -152z"/>
<path d="M8084 1209 l-62 -189 139 0 c76 0 139 2 139 5 0 10 -142 360 -149
366 -3 4 -34 -78 -67 -182z"/>
</g>
</svg>
